<?xml version="1.0" encoding="UTF-8"?>
<svg id="Layer_1" data-name="Layer 1" xmlns="http://www.w3.org/2000/svg" viewBox="0 0 1920 246.15">
  <defs>
    <style>
      .cls-1 {
        fill: #7a963c;
      }

      .cls-2 {
        fill: #eeeaea;
      }

      .cls-3 {
        fill: #a59ea0;
      }

      .cls-4 {
        fill: #7b7677;
      }

      .cls-5 {
        fill: #e5dfdf;
      }
    </style>
  </defs>
  <path class="cls-2" d="M1920,108.5c-242.04-1.14-721.99-111-1286.01-56.42C337.18,80.81,130.87,88.27,0,88.71v157.44h1920V108.5Z"/>
  <g>
    <path class="cls-5" d="M678.36,3.63c1.51-.35,2.79,1.16,3.49,1.16s1.05,1.28,2.21-1.63c1.16-2.91,2.56-3.49,5.35-3.03,2.79.47,2.68,2.79,4.31,4.19,0,0,2.56-.7,3.61-.46,1.05.23,1.05,1.63,1.05,1.63,0,0,10.59.23,13.73.12,3.14-.12,13.03,1.86,18.16,2.56,10.15,1.38,24.93-6.48,34.02.93,3.56,2.9,3.61,8.89,3.74,13.05.11,3.52-.15,7.02.09,10.54.11,1.61.99,3.7.94,5.53.19.97.16,1.95-.2,2.97-.02.06-.06.08-.1.09-.07.47-.17.95-.33,1.42-.06.19-.35-.07-.36-.17-.07-.42-.13-.84-.19-1.27-.1.27-.22.54-.4.82-.11.18-.34-.03-.41-.15-.69-1.22-.84-2.8-.75-4.4-.31-2.36.85-4.85.71-7.22-.14-2.47-.05-4.95-.05-7.42,0-2.7-.17-5.38-.72-8.02-.39-1.9-1.2-3.33-2.33-4.6-.52-.49-1.12-.92-1.83-1.27-.09-.04-.18-.08-.27-.13,2.17,3.07,1.27,9.54,1.37,11.98.12,3.02-.93,3.84-.93,6.05s-1.4,8.03-1.51,10.01c-.12,1.98,1.51,4.07,2.33,5.12.81,1.05.47,17.45.47,17.45h-7.45s1.05-4.07,1.28-6.86c.23-2.79-.81-5.58-1.86-8.49-1.05-2.91-1.63-5.93-3.26-8.03-1.63-2.1-5.12-.7-7.22-.12-2.09.58-4.77,3.37-7.8,4.07-3.02.7-8.49.35-12.22-.12-3.72-.46-7.56-2.56-9.42-2.44-1.86.12-3.84.58-3.84,4.31s-2.09,8.14-2.09,8.14v9.54h-4.42v-1.05h-1.16l1.16-7.45c-1.4-3.61-1.4-10.47-1.4-10.47-5.23-.11-8.72-7.56-9.89-11.17-1.16-3.61-2.44-7.33-4.07-8.03-1.63-.69-4.31.23-5.7.23s-2.56-1.39-2.56-2.91.23-1.63.58-5.12c.35-3.49-.12-4.54-.12-4.54-.58,1.28-1.98.46-3.03,0-1.05-.47-3.26-2.45-3.38-3.26-.12-.82,1.16-1.75,2.68-2.1Z"/>
    <g>
      <path class="cls-5" d="M692.24,5.94s-.06-.01-.05-.04c.23-.73.59-1.45,1.07-2.05.14.17.29.33.47.48,0,0,.08-.02.22-.06-.72.37-1.25.82-1.7,1.67Z"/>
      <path class="cls-5" d="M687.41,19.4s.06.01.06.03c.04.7-.1,1.28-.42,1.73-1.08.14-2.15.39-2.87.39-.38,0-.74-.1-1.06-.28.54.03,1.09.12,1.59.1,1.24-.06,2.4-.71,2.7-1.97Z"/>
      <path class="cls-5" d="M711.91,36.81c.09-1.48.41-2.73.94-4.11.62-1.62.97-3.34,1.65-4.94.02-.05.11.02.1.06-.48,3.18-1.23,6.43-1.36,9.62,0,.22-.01.45-.02.67-.86.56-1.46,1.62-1.46,3.68,0,.93-.13,1.91-.33,2.85.07-.82.22-1.64.26-2.51.07-1.77.12-3.55.23-5.33Z"/>
      <path class="cls-5" d="M745.5,28.81c-1.77-2.71-.45-6.98,1.64-9.14.14-.14.37.15.34.29-.34,1.7-1.37,3.24-1.86,4.93-.75,2.6,1.19,4.63,2.82,6.37,1.37,1.45,3.48,3.5,4.34,5.63-.17-.27-.34-.53-.53-.78-.44-.57-1.02-.87-1.67-1.01-.56-.84-1.15-1.67-1.82-2.44-1.11-1.27-2.32-2.42-3.25-3.84Z"/>
      <path class="cls-5" d="M724.56,11.43c-3.28-.68-5.85-2.19-8.74-3.81-2.51-1.4-5.12-1.64-7.74-1.97,1.66.01,3.14,0,4.03-.03.56-.02,1.35.02,2.29.12,3.48,1.7,6.46,4.41,10.15,5.62.03,0,.06.07.02.07Z"/>
      <path class="cls-5" d="M732.54,10.79s-.09-.07-.05-.08c2.41-.44,4.34-1.65,6.31-2.89,1.81-.26,3.65-.6,5.51-.92-1.08.25-2.13.58-3.17.98-3,1.15-5.21,3.33-8.61,2.9Z"/>
      <path class="cls-5" d="M759.34,48.52c-.17-4.39-3.18-8.69-4.56-12.81-.01-.04.04-.01.05,0,1.55,4.06,4.33,7.93,5.06,12.24.32,1.89.07,3.87-.09,5.76-.16,1.86-.01,3.93-.38,5.78h-.55c-.52-3.54.61-7.4.47-10.97Z"/>
      <path class="cls-5" d="M706,46.2c-.21-5.03-.76-10-.72-15.04,0-.03.04,0,.05.02.1,2.45.18,4.9.39,7.34.21,2.44.79,4.81,1.07,7.24.23,2.03.04,4.03-.38,6.01-.54,2.57-.73,5.13-1.11,7.7h-.04v-1.05h-.51c-.05-4.09,1.44-8.13,1.26-12.23Z"/>
    </g>
    <path class="cls-5" d="M696.37,59.56s.08,0,.12.01h.02c2.41.31,4.79.46,7.19.37.7.08,1.39.12,2.09.17.1.09.21.16.3.18.96.19.98.2,1.71.06,4.54.18,9.03.77,13.57.95,4.26.17,8.52-.17,12.75.31.18.19.41.35.6.36.61,0,1.21,0,1.82,0,.04,0,.06-.01.1-.02,1.43-.06,2.84-.19,4.29-.14.17,0,.26-.06.3-.15,3.15.02,6.3-.14,9.45.07,2.53.18,4.97.32,7.47-.16.3-.06.24-.32.07-.57.99-.03,1.99-.08,3-.12.49-.02,2.46-.07,3.76-.19,1.05.18,2.09.36,3.15.52.52.08.15-.64-.18-.7-.72-.14-1.43-.22-2.15-.29-.21-.06-.51-.12-.94-.19-.32-.05-.78-.13-1.27-.21.18,0,.36,0,.54-.03,2.17.15,4.32.44,6.49.62.37.03-.01-.56-.22-.61-.48-.11-2.41-.28-2.94-.37,0-.02,0-.04,0-.06.15-.01.43-.01.91,0,.41,0-.03-.59-.24-.65-1.9-.46-3.85-.5-5.67-1.26-.36-.15-.25.29-.03.42-.36-.04-.72-.07-1.08-.09-.03-.01-.06-.03-.08-.03-4.04-.89-8.01-.15-12.09-.06-4.96.11-9.91-.27-14.86.17-1.6.14-3.2.27-4.82.36-2.42-.08-4.84-.19-7.25-.39-2.87-.25-5.8-.6-8.69-.49-1.26.05-2.02.36-2.9.62-.5.07-.99.17-1.48.29-.27.03-.54.04-.82.04-.3-.03-.65-.03-1.09-.11-.18-.03-.3,0-.4.03-.51-.06-1.02-.14-1.53-.23-2.03-.98-5.05-1.57-7.15-.81-.56.21.27.99.6,1.01.31,0,.61,0,.91.02.04.02.07.03.11.03.11.02.31.04.57.08-1.43.22-2.84.22-4.35.21-.61,0,0,.95.37,1Z"/>
  </g>
  <g>
    <path class="cls-1" d="M1071.79,58.8c-.12-.1.02-2.48-.09-2.59-.04-.03-.36,2.33-.33,2.37.11.1.22.21.33.32.04.04.13-.06.09-.1Z"/>
    <path class="cls-3" d="M1076.98,32.06c3.33,1.59,4.99,3.37,8.71,3.55,3.73.18,17.57,2.4,29.57,3.23,12.01.83,30.7,3.02,36.16,6.04,0,0,5.96-.55,12.55,6.63,6.59,7.19,18.19,31.01,18.19,31.01,0,0,6.58-1.23,8.44.64,1.85,1.87,0,4.53.29,7.59.28,3.06,1.84,9.8,1.65,13.37-.19,3.57.53,9.52,1.46,12.56.92,3.04,1.15,4.65.54,5.65-.61.99-7.53,1.91-9.4-.45-1.87-2.35-4.92-1.75-6.3-3.8-1.37-2.05-9.12-9.84-8.34-14.72.38-2.77-3.12-5.38-5.78-7.22-2.66-1.84-10.18.4-12.36-1.46-2.17-1.86-3.29-1.49-3.29-1.49,0,0-.12,5.18-1.26,9.11-1.14,3.93-1.11,4.9-.52,7.46.59,2.57,1.53,6.09,1.1,7.56-.43,1.47-3.66,1.44-4.06-.49l-.4-1.92-.78.84s-.56-6.13-.67-9.04c-.11-2.91-1.18-13.71-.77-15.67,0,0-.45-3.22-1.64-.58s-2.6,8.19-3.95,10.83c-1.35,2.64-3.38,4.5-3.32,6.28.07,1.78.95,7.89,1.02,9.67.07,1.77-1.2,2.47-4.59,2.6-3.39.13-2.34-2.01-2.41-3.79-.07-1.77,2.36-10.12,1.8-12.04s-.59-6.77.3-9.07c.88-2.3,1.44-8.79,1.22-10.41,0,0-15.98.94-21.35.18-5.37-.77-12.06-6.49-12.76-7.76,0,0-1.17,3.28-1.16,7.49,0,4.21-.41,14.42,1.19,18.24,1.6,3.82,8.34,14.72,8.36,15.37.03.65-3.6,3.22-4.74,2.94-1.14-.28-5.35-4.33-6.49-8.65-1.14-4.32-5-12.26-6.17-13.19-1.17-.93-3.19-3.11-3.24-4.41-.05-1.29-.6-7.1-.6-7.1,0,0-.46,4.87-1.95,8.01-1.5,3.13-1.58,5.08-1.53,6.53.06,1.45-.69,7.31-.27,9.88.42,2.57,1.48,4.8,1.19,5.62-.29.82-3.93,2.9-4.78,1.8-.85-1.1-.14-3.55-.14-3.55l-2.62-.71s-.09-19.09-.81-21c-.72-1.92-1.83-5.43-.1-6.79,1.73-1.36,3.52-9.36,2.49-15.15-1.03-5.78-4.94-16.47-5.18-19.7,0,0-.86,1.81-2.93,6.74-2.07,4.93-3.79,10.83-3.33,14.21.45,3.38,1.6,7.77,1.35,9.77-.25,2-3.43-.95-4.18-3.51-.75-2.56-1.1-7.56.35-11.83,1.45-4.27,4.74-11.19,5.27-14.44.52-3.26.46-9.08.68-11.68.22-2.6,1.41-5.23,3.13-6.76,1.72-1.52,4.79-4.16,7.17-3.03Z"/>
    <g>
      <path class="cls-3" d="M1198.87,121.08c-.33-.57-.67-1.13-1.01-1.7-.07-.16-.21-.26-.39-.25-.13,0-.22.05-.33.08,0-.24-.09-.46-.4-.45-4.61.08-9.18-.31-13.74-.82-.02-.16-.1-.28-.29-.34-1.42-.42-2.87-.65-4.32-.78-1.02-.28-2.03-.54-3.06-.76-7.92-1.63-16.19-1.35-24.21-1.04-9.17.35-18.35.89-27.53,1.22-.08-.09-.19-.17-.35-.17-5.84-.22-11.62-.21-17.39.17-.11-.08-.23-.15-.38-.15-.66.01-1.32.05-1.99.08-1.92-3.43-6.17-10.53-7.4-13.47-1.6-3.82-1.19-14.03-1.19-18.24,0-3.41.77-6.22,1.06-7.15-.07.06-.14.13-.21.19-4.94,4.21-10.04,7.06-12.26,13.14.15,1.64.3,3.47.33,4.13.05,1.29,2.08,3.48,3.24,4.41,1.17.92,5.04,8.87,6.17,13.19.34,1.28.96,2.52,1.67,3.66-4.51-.31-9.02-.78-13.53-1.46-.49-.08-1.38.96-.76,1.27-.41-.2-1.17-.16-1.93.03-.56-.32-1.05-.72-1.44-1.23-.29-.37-.96-.05-1.24.15-.53.37-.82.7-1.18,1.25-.31.48-.48,1.19.25,1.31.42.07.8.08,1.2.11-.18.1-.35.23-.51.38-1.49-.04-2.99-.06-4.48-.04-.26,0-.53,0-.79,0-.12,0-.25,0-.37,0-1.11.02-2.25.08-3.48.2-1.1.11-2.69,2.63-1.2,2.49,3.57-.32,7.09-.24,10.64-.12,4.82,1.62,9.24,1,14.23.03.91-.18,1.8-.34,2.7-.51,8.88,2.43,18.75,2.09,28.49,1.23-.06.29.04.52.46.53,6.97.09,13.91.51,20.87.89,2.11.34,4.23.49,6.55.54,1.02,0,2.04,0,3.06,0,1.67.58,2.65.57,2.95-.02.93.03,1.87.08,2.8.09.88.01,2.16-1.92.94-1.96-1.54-.05-3.08-.05-4.61-.06-2.51-.04-5.03-.16-7.54-.31.99-.13,1.98-.26,2.96-.39,2.29-.3,4.67-.48,7.08-.6,3.49.33,6.96.79,10.43,1.31,4.13.62,8.5-.03,12.74.02,2.84.45,5.62.99,8.27,1.63.72.17,1.8-.56,2.21-1.34,2.34.52,4.71.95,7.14,1.18.62.06,1.51-.92,1.08-1.5Z"/>
      <path class="cls-5" d="M1130.04,72.23c.01-.07-.08-.02-.09.03-.78,3.75-.16,7.52-.62,11.29-.04.35-.11.7-.18,1.04.63-.03,1-.06,1-.06.01.07.02.16.02.26.02-.16.04-.32.05-.48.35-4.05-.82-8.04-.19-12.08Z"/>
      <path class="cls-5" d="M1145.45,76.97c.02-.09-.11-.02-.12.04-1.22,4.35-3.14,8.5-4.81,12.71.44-.55.74-.21.94.26.06-.18.12-.35.18-.53,1.46-4.14,2.84-8.19,3.82-12.48Z"/>
      <path class="cls-5" d="M1171.33,97.56c.16-2.25-.86-3.28-3.06-3.43-.06,0-.18.15-.09.17,3.03.77,2.23,3.95,1.69,6.48.51.83.78,1.69.66,2.57-.08.48-.07.98,0,1.5,0-.83.02-1.65.14-2.49.21-1.6.56-3.19.67-4.8Z"/>
      <path class="cls-5" d="M1132.28,47.2s-.07.06-.03.06c4.67.45,9.03.77,13.6-.56,2.31-.67,3.24-1.52,5.57-1.83-.73-.08,0,0,0,0-.68-.38-1.57-.74-2.62-1.09-5.4,1.77-10.73,3.67-16.53,3.42Z"/>
      <path class="cls-5" d="M1081.3,34.7c2.33,1.29,4.84,2.37,7.39,3.15,5.5,1.7,10.94,2.07,15.7,5.66.05.03.13-.05.11-.1-2.18-4.65-7.28-5.82-11.85-6.85-.51-.11-1.01-.24-1.51-.38-2.46-.3-4.37-.52-5.44-.58-2.48-.12-4.04-.94-5.78-1.95.37.38.82.72,1.39,1.04Z"/>
      <path class="cls-5" d="M1100.39,71.66c.98-2.03,1.79-5.77.04-7.53-.14-.14-.38.14-.4.27-.31,1.6-.02,3.14-.2,4.75-.21,1.86-1.13,3.54-2.28,4.98-1.92,2.4-4.6,4.17-7.03,6.01-2.6,1.97-5.98,4.72-7.28,8.04.05.55-.25-.54-.17.43,2.22-6.08,7.72-6.92,12.65-11.14.07-.06.14-.13.21-.19.07-.22.11-.34.11-.34.02.04.07.1.1.15,1.74-1.55,3.23-3.33,4.25-5.44Z"/>
      <path class="cls-5" d="M1071.53,43.6c.06-.16-.13-.09-.18,0-1.2,2.43-1.54,5.21-1.78,7.88-.03.39-.08.78-.14,1.18.03-.06.04-.08.04-.08.07.91.42,2.4.92,4.2.19-.7.32-1.41.37-2.14.24-3.58-.56-7.63.76-11.04Z"/>
      <path class="cls-5" d="M1177.54,84.87c1.49.15,2.54-.88,3.65-1.75.3-.23.63-.45.97-.64-.04-.08-.18-.37-.42-.85-1.37,1.01-2.71,2.15-4.19,3.12-.04.03-.08.12-.01.13Z"/>
    </g>
  </g>
  <g>
    <path class="cls-1" d="M728.24,47.81c.12-.1-.02-2.48.09-2.59.04-.03.36,2.33.33,2.37-.11.1-.22.21-.33.32-.04.04-.13-.06-.09-.1Z"/>
    <path class="cls-3" d="M723.05,21.08c-3.33,1.59-4.99,3.37-8.71,3.55-3.73.18-17.57,2.4-29.57,3.23-12.01.83-30.7,3.02-36.16,6.04,0,0-5.96-.55-12.55,6.63-6.59,7.19-18.19,31.01-18.19,31.01,0,0-6.58-1.23-8.44.64-1.85,1.87,0,4.53-.29,7.59-.28,3.06-1.84,9.8-1.65,13.37.19,3.57-.53,9.52-1.46,12.56-.92,3.04-1.15,4.65-.54,5.65.61.99,7.53,1.91,9.4-.45,1.87-2.35,4.92-1.75,6.3-3.8,1.37-2.05,9.12-9.84,8.34-14.73-.38-2.77,3.12-5.38,5.78-7.22,2.66-1.84,10.18.4,12.36-1.46,2.17-1.86,3.29-1.49,3.29-1.49,0,0,.12,5.18,1.27,9.11,1.14,3.93,1.1,4.9.52,7.46-.59,2.57-1.53,6.09-1.1,7.56.43,1.47,3.66,1.44,4.06-.49l.4-1.92.78.84s.56-6.13.67-9.04c.11-2.91,1.18-13.71.77-15.67,0,0,.45-3.22,1.64-.58,1.19,2.64,2.6,8.19,3.95,10.83,1.35,2.64,3.38,4.5,3.32,6.28-.07,1.78-.95,7.89-1.02,9.67-.07,1.77,1.2,2.47,4.59,2.6,3.39.13,2.34-2.01,2.41-3.79.07-1.77-2.36-10.12-1.8-12.04s.59-6.77-.3-9.07c-.88-2.3-1.44-8.79-1.21-10.41,0,0,15.98.94,21.35.18,5.37-.77,12.06-6.49,12.76-7.76,0,0,1.17,3.28,1.16,7.49,0,4.21.41,14.42-1.19,18.24-1.6,3.82-8.34,14.73-8.36,15.37-.03.65,3.6,3.22,4.74,2.94,1.14-.28,5.35-4.33,6.49-8.65,1.14-4.32,5-12.26,6.17-13.19,1.17-.93,3.19-3.11,3.24-4.41.05-1.29.6-7.1.6-7.1,0,0,.46,4.87,1.95,8.01,1.5,3.13,1.58,5.08,1.53,6.53-.06,1.45.69,7.31.27,9.88-.42,2.57-1.48,4.8-1.19,5.62.29.82,3.93,2.9,4.78,1.8.85-1.1.14-3.55.14-3.55l2.62-.71s.09-19.09.81-21c.72-1.92,1.83-5.43.1-6.79-1.73-1.36-3.52-9.36-2.49-15.15,1.03-5.78,4.94-16.47,5.18-19.7,0,0,.86,1.81,2.93,6.74,2.07,4.93,3.79,10.83,3.33,14.21-.45,3.38-1.6,7.77-1.35,9.77.25,2,3.43-.95,4.18-3.51.75-2.56,1.1-7.56-.35-11.83-1.45-4.27-4.74-11.19-5.27-14.44-.52-3.26-.46-9.08-.68-11.68-.22-2.6-1.41-5.23-3.14-6.76-1.72-1.52-4.79-4.16-7.17-3.03Z"/>
    <g>
      <path class="cls-3" d="M602.25,111.59c2.43-.23,4.8-.66,7.14-1.18.41.79,1.49,1.52,2.21,1.34,2.65-.64,5.43-1.17,8.27-1.63,4.24-.05,8.61.6,12.74-.02,3.47-.52,6.95-.97,10.43-1.31,2.41.12,4.79.29,7.08.6.98.13,1.97.26,2.96.39-2.51.14-5.03.27-7.54.31-1.54.01-3.08.02-4.61.06-1.22.04.07,1.97.94,1.96.94-.01,1.87-.06,2.8-.09.3.59,1.28.6,2.95.02,1.02,0,2.04,0,3.06,0,2.31-.06,4.44-.21,6.55-.54,6.95-.38,13.9-.8,20.87-.89.42,0,.52-.24.46-.53,9.74.86,19.62,1.19,28.49-1.23.9.17,1.8.33,2.7.51,4.99.97,9.4,1.59,14.23-.03,3.55-.12,7.07-.2,10.64.12,1.49.13-.1-2.39-1.2-2.49-1.23-.12-2.36-.18-3.48-.2-.13,0-.25,0-.37,0-.26,0-.53,0-.79,0-1.49-.02-2.99,0-4.48.04-.16-.16-.33-.28-.51-.38.4-.03.78-.04,1.2-.11.73-.12.56-.83.25-1.31-.36-.55-.65-.88-1.18-1.25-.28-.2-.95-.52-1.24-.15-.39.51-.89.9-1.44,1.23-.75-.19-1.52-.23-1.93-.03.62-.31-.27-1.34-.76-1.27-4.5.69-9.01,1.15-13.53,1.46.71-1.14,1.33-2.38,1.67-3.66,1.14-4.32,5-12.26,6.17-13.19,1.17-.93,3.19-3.11,3.24-4.41.03-.66.18-2.49.33-4.13-2.22-6.08-7.33-8.92-12.26-13.14-.07-.06-.14-.13-.21-.19.29.94,1.06,3.74,1.06,7.15,0,4.21.41,14.42-1.19,18.24-1.23,2.94-5.48,10.04-7.4,13.47-.66-.02-1.32-.06-1.99-.07-.15,0-.27.07-.38.15-5.78-.38-11.56-.4-17.39-.17-.17,0-.27.08-.35.17-9.18-.32-18.36-.87-27.53-1.22-8.03-.3-16.29-.59-24.21,1.04-1.03.21-2.05.48-3.06.76-1.45.12-2.9.35-4.32.78-.19.06-.27.18-.29.34-4.56.52-9.13.91-13.74.82-.31,0-.4.21-.4.45-.11-.03-.2-.07-.33-.08-.18,0-.32.1-.39.25-.33.57-.67,1.13-1.01,1.7-.43.57.46,1.55,1.08,1.5Z"/>
      <path class="cls-5" d="M669.99,61.24c-.01-.07.08-.02.09.03.78,3.75.16,7.52.62,11.29.04.35.11.7.18,1.04-.63-.03-1-.06-1-.06-.01.07-.02.16-.03.26-.02-.16-.04-.32-.05-.48-.35-4.05.82-8.04.19-12.08Z"/>
      <path class="cls-5" d="M654.59,65.98c-.02-.09.11-.02.12.04,1.22,4.35,3.14,8.5,4.81,12.71-.44-.55-.74-.21-.94.26-.06-.18-.12-.35-.18-.53-1.46-4.14-2.84-8.19-3.82-12.48Z"/>
      <path class="cls-5" d="M628.71,86.58c-.16-2.25.86-3.28,3.06-3.43.06,0,.18.15.09.17-3.03.77-2.23,3.95-1.69,6.48-.51.83-.78,1.69-.66,2.57.08.48.07.98,0,1.5,0-.83-.02-1.65-.14-2.49-.21-1.6-.56-3.19-.67-4.8Z"/>
      <path class="cls-5" d="M667.76,36.22s.07.06.03.06c-4.67.45-9.03.77-13.6-.56-2.31-.67-3.24-1.52-5.57-1.83.73-.08,0,0,0,0,.68-.38,1.57-.74,2.62-1.09,5.4,1.77,10.73,3.67,16.53,3.42Z"/>
      <path class="cls-5" d="M718.73,23.72c-2.33,1.29-4.84,2.37-7.39,3.15-5.5,1.7-10.94,2.07-15.7,5.66-.05.03-.13-.05-.11-.1,2.18-4.65,7.28-5.82,11.85-6.85.51-.11,1.01-.24,1.51-.38,2.46-.3,4.37-.52,5.44-.58,2.48-.12,4.04-.94,5.78-1.95-.37.38-.82.72-1.39,1.04Z"/>
      <path class="cls-5" d="M699.65,60.68c-.98-2.03-1.79-5.77-.04-7.53.14-.14.38.14.4.27.31,1.6.02,3.14.2,4.75.21,1.86,1.13,3.54,2.28,4.98,1.92,2.4,4.6,4.17,7.03,6.01,2.6,1.97,5.98,4.72,7.28,8.04-.05.55.25-.54.17.43-2.22-6.08-7.72-6.92-12.65-11.14-.07-.06-.14-.13-.21-.19-.07-.22-.11-.34-.11-.34-.02.04-.07.1-.1.15-1.74-1.56-3.23-3.33-4.25-5.44Z"/>
      <path class="cls-5" d="M728.5,32.62c-.06-.16.13-.09.18,0,1.2,2.43,1.54,5.21,1.78,7.88.03.39.08.78.14,1.18-.03-.06-.04-.08-.04-.08-.07.91-.42,2.4-.92,4.2-.19-.7-.32-1.41-.37-2.14-.24-3.58.56-7.63-.76-11.04Z"/>
      <path class="cls-5" d="M622.5,73.89c-1.49.15-2.54-.88-3.65-1.75-.3-.23-.63-.45-.97-.64.04-.08.18-.37.42-.85,1.37,1.01,2.71,2.15,4.19,3.12.04.03.08.12.01.13Z"/>
    </g>
  </g>
  <g>
    <path class="cls-4" d="M1020.97,61.57c-3.95-.91-7.29,3.04-9.11,3.04s-2.73,3.34-5.77-4.25c-3.04-7.6-6.68-9.12-13.98-7.9-7.29,1.21-6.99,7.29-11.24,10.94,0,0-6.69-1.82-9.42-1.22-2.74.61-2.74,4.26-2.74,4.26,0,0-27.65.61-35.86.3-8.2-.3-34.03,4.86-47.41,6.69-26.52,3.6-65.11-16.92-88.85,2.42-9.3,7.58-9.43,23.22-9.76,34.08-.28,9.19.4,18.34-.23,27.53-.29,4.21-2.59,9.67-2.47,14.43-.49,2.55-.41,5.1.52,7.77.05.15.15.22.26.23.17,1.23.44,2.47.86,3.72.17.49.9-.19.95-.46.19-1.1.33-2.21.5-3.3.26.71.58,1.4,1.05,2.15.3.48.89-.08,1.06-.39,1.79-3.19,2.19-7.31,1.96-11.48.8-6.16-2.21-12.67-1.85-18.86.37-6.45.13-12.93.14-19.38.02-7.04.45-14.04,1.88-20.94,1.03-4.97,3.13-8.71,6.09-12.01,1.36-1.28,2.92-2.42,4.78-3.32.23-.12.48-.21.71-.32-5.65,8.02-3.33,24.9-3.57,31.28-.3,7.9,2.43,10.03,2.43,15.8s3.65,20.97,3.95,26.13c.3,5.17-3.95,10.64-6.08,13.37-2.13,2.74-1.22,45.58-1.22,45.58h19.45s-2.74-10.63-3.34-17.93c-.61-7.29,2.13-14.59,4.86-22.18,2.73-7.6,4.25-15.49,8.51-20.96,4.26-5.47,13.37-1.82,18.84-.3,5.47,1.52,12.46,8.81,20.36,10.63,7.9,1.82,22.18.91,31.91-.3,9.72-1.22,19.75-6.68,24.61-6.38,4.86.3,10.03,1.52,10.03,11.24s5.47,21.27,5.47,21.27v24.92h11.55v-2.74h3.04l-3.04-19.45c3.65-9.42,3.65-27.35,3.65-27.35,13.67-.3,22.79-19.75,25.83-29.17,3.04-9.42,6.38-19.14,10.63-20.96,4.25-1.82,11.24.61,14.89.61s6.68-3.64,6.68-7.59-.61-4.25-1.52-13.37c-.91-9.12.3-11.85.3-11.85,1.52,3.34,5.17,1.22,7.9,0,2.73-1.21,8.51-6.38,8.81-8.51.3-2.13-3.04-4.56-6.99-5.47Z"/>
    <g>
      <path class="cls-4" d="M984.74,67.6c.04.07.16-.04.14-.1-.6-1.9-1.55-3.78-2.79-5.37-.37.44-.77.87-1.23,1.27,0,0-.22-.06-.57-.15,1.87.97,3.27,2.14,4.45,4.35Z"/>
      <path class="cls-4" d="M997.34,102.75c-.02-.08-.14.04-.14.09-.1,1.84.26,3.34,1.1,4.51,2.83.37,5.6,1.02,7.48,1.02.99,0,1.92-.27,2.77-.74-1.4.07-2.85.31-4.15.26-3.24-.14-6.26-1.84-7.06-5.13Z"/>
      <path class="cls-4" d="M933.36,148.21c-.24-3.86-1.08-7.13-2.46-10.74-1.62-4.24-2.55-8.73-4.3-12.89-.06-.13-.27.06-.26.15,1.26,8.3,3.21,16.79,3.56,25.13.03.59.03,1.17.04,1.76,2.24,1.46,3.82,4.23,3.82,9.61,0,2.44.34,4.98.86,7.44-.17-2.14-.58-4.27-.67-6.56-.19-4.64-.3-9.27-.59-13.91Z"/>
      <path class="cls-4" d="M845.63,127.31c4.62-7.07,1.19-18.22-4.28-23.87-.36-.37-.95.4-.88.75.89,4.45,3.58,8.47,4.85,12.88,1.95,6.79-3.1,12.1-7.35,16.62-3.57,3.8-9.08,9.14-11.34,14.7.43-.71.89-1.4,1.4-2.05,1.15-1.48,2.67-2.28,4.37-2.65,1.46-2.2,2.99-4.35,4.76-6.37,2.91-3.32,6.05-6.31,8.48-10.03Z"/>
      <path class="cls-4" d="M900.32,81.92c8.56-1.77,15.27-5.72,22.83-9.94,6.55-3.66,13.36-4.28,20.22-5.16-4.35.03-8.2.01-10.51-.08-1.48-.06-3.54.07-5.99.32-9.09,4.43-16.86,11.52-26.5,14.69-.07.03-.17.2-.04.17Z"/>
      <path class="cls-4" d="M879.48,80.26c.06,0,.24-.18.12-.2-6.3-1.14-11.33-4.3-16.47-7.54-4.71-.7-9.54-1.57-14.4-2.39,2.81.65,5.57,1.51,8.27,2.55,7.83,3.01,13.59,8.7,22.47,7.59Z"/>
      <path class="cls-4" d="M809.49,178.78c.45-11.47,8.29-22.7,11.92-33.46.03-.09-.11-.04-.14.02-4.04,10.59-11.32,20.7-13.23,31.95-.83,4.92-.18,10.11.24,15.03.42,4.86.03,10.26.99,15.11h1.43c1.37-9.24-1.59-19.33-1.23-28.64Z"/>
      <path class="cls-4" d="M948.8,172.74c.56-13.13,2-26.1,1.89-39.28,0-.07-.12,0-.12.06-.25,6.4-.47,12.8-1.01,19.19-.54,6.37-2.05,12.56-2.78,18.9-.61,5.3-.1,10.52,1,15.71,1.41,6.72,1.9,13.39,2.89,20.11h.11v-2.74h1.32c.13-10.67-3.76-21.24-3.3-31.95Z"/>
    </g>
    <path class="cls-4" d="M974.89,205c-3.93.01-7.61.01-11.35-.56.67-.09,1.19-.16,1.49-.2.08,0,.18-.05.28-.09.78-.05,1.57-.08,2.37-.05.86-.04,3.04-2.1,1.57-2.63-5.47-1.98-13.38-.43-18.67,2.12-1.33.24-2.67.45-4,.6-.25-.1-.58-.15-1.04-.07-1.17.19-2.06.21-2.86.28-.71,0-1.42-.03-2.13-.11-1.29-.33-2.58-.6-3.87-.77-2.31-.67-4.3-1.5-7.58-1.62-7.54-.29-15.19.65-22.69,1.29-6.3.53-12.61.83-18.93,1.04-4.21-.26-8.41-.58-12.58-.95-12.93-1.15-25.85-.16-38.8-.45-10.65-.24-21.01-2.17-31.57.14-.06.01-.14.06-.21.09-.94.06-1.88.13-2.82.23.57-.34.85-1.5-.09-1.11-4.77,1.99-9.85,2.11-14.81,3.3-.55.14-1.7,1.71-.62,1.69,1.27-.03,2-.02,2.38,0-.02.06-.02.11-.02.16-1.38.25-6.43.7-7.68.97-.55.12-1.56,1.68-.58,1.6,5.65-.46,11.27-1.21,16.93-1.61.47.04.94.06,1.41.06-1.28.2-2.49.41-3.32.55-1.13.18-1.92.35-2.47.51-1.86.16-3.73.38-5.61.74-.85.16-1.83,2.04-.46,1.84,2.77-.42,5.5-.91,8.24-1.37,3.4.33,8.56.46,9.83.51,2.64.11,5.24.24,7.83.3-.45.67-.6,1.35.18,1.5,6.53,1.24,12.89.88,19.5.41,8.22-.58,16.44-.14,24.67-.19.1.24.32.4.77.38,3.77-.14,7.47.2,11.2.36.09.02.14.06.26.06,1.58,0,3.17,0,4.75,0,.5-.02,1.07-.42,1.55-.93,11.04-1.27,22.17-.38,33.29-.82,11.85-.47,23.6-2.01,35.44-2.47,1.92.35,1.98.33,4.48-.17.24-.05.51-.23.79-.47,1.83-.13,3.65-.26,5.47-.45,6.27.23,12.49-.18,18.77-.98h.06s0,0,0,0c.11-.01.21-.02.31-.03.97-.12,2.56-2.62.96-2.61Z"/>
  </g>
</svg>